<svg width="192" height="192" viewBox="0 0 192 192" fill="none" xmlns="http://www.w3.org/2000/svg">
<g clip-path="url(#clip0_93_8)">
<path d="M178.286 192C178.286 181.194 176.157 170.494 172.022 160.511C167.887 150.527 161.826 141.456 154.185 133.815C146.544 126.174 137.473 120.113 127.489 115.978C117.506 111.843 106.806 109.714 96.0001 109.714C85.1942 109.714 74.494 111.843 64.5107 115.978C54.5273 120.113 45.4562 126.174 37.8153 133.815C30.1743 141.456 24.1132 150.527 19.978 160.511C15.8427 170.494 13.7144 181.194 13.7144 192L178.286 192Z" fill="#F0B100"/>
<path d="M13.7144 7.19365e-06C13.7144 10.8059 15.8427 21.506 19.978 31.4894C24.1132 41.4728 30.1743 50.5439 37.8153 58.1848C45.4562 65.8257 54.5273 71.8869 64.5107 76.0221C74.4941 80.1573 85.1942 82.2857 96.0001 82.2857C106.806 82.2857 117.506 80.1573 127.489 76.0221C137.473 71.8869 146.544 65.8257 154.185 58.1848C161.826 50.5439 167.887 41.4727 172.022 31.4894C176.157 21.506 178.286 10.8059 178.286 0L13.7144 7.19365e-06Z" fill="#4A6FA5"/>
</g>
<defs>
<clipPath id="clip0_93_8">
<rect width="192" height="192" fill="white"/>
</clipPath>
</defs>
</svg>
