<svg width="512" height="512" viewBox="0 0 512 512" fill="none" xmlns="http://www.w3.org/2000/svg">
<path d="M475.427 512C475.427 483.184 469.752 454.651 458.724 428.028C447.697 401.406 431.534 377.216 411.158 356.841C390.782 336.465 366.593 320.302 339.971 309.274C313.348 298.247 284.815 292.571 255.999 292.571C227.183 292.571 198.649 298.247 172.027 309.274C145.405 320.302 121.215 336.465 100.839 356.841C80.4636 377.216 64.3006 401.406 53.2733 428.028C42.246 454.651 36.5703 483.184 36.5703 512L475.427 512Z" fill="#F0B100"/>
<path d="M36.5703 1.91831e-05C36.5703 28.8158 42.246 57.3494 53.2733 83.9717C64.3006 110.594 80.4636 134.784 100.839 155.159C121.215 175.535 145.405 191.698 172.027 202.726C198.65 213.753 227.183 219.429 255.999 219.429C284.815 219.429 313.348 213.753 339.971 202.726C366.593 191.698 390.782 175.535 411.158 155.159C431.534 134.784 447.697 110.594 458.724 83.9717C469.752 57.3494 475.427 28.8158 475.427 0L36.5703 1.91831e-05Z" fill="#4A6FA5"/>
</svg>
