<svg width="32" height="32" viewBox="0 0 32 32" fill="none" xmlns="http://www.w3.org/2000/svg">
<path d="M29.7142 32C29.7142 30.199 29.3595 28.4157 28.6703 26.7518C27.9811 25.0879 26.9709 23.576 25.6974 22.3025C24.4239 21.029 22.9121 20.0189 21.2482 19.3296C19.5843 18.6404 17.8009 18.2857 15.9999 18.2857C14.1989 18.2857 12.4156 18.6404 10.7517 19.3296C9.08781 20.0189 7.57595 21.029 6.30247 22.3025C5.02898 23.576 4.01879 25.0879 3.32958 26.7518C2.64037 28.4157 2.28564 30.199 2.28564 32L29.7142 32Z" fill="#F0B100"/>
<path d="M2.28564 1.19894e-06C2.28564 1.80099 2.64038 3.58434 3.32958 5.24823C4.01879 6.91213 5.02898 8.42398 6.30247 9.69747C7.57596 10.971 9.08781 11.9811 10.7517 12.6703C12.4156 13.3596 14.1989 13.7143 15.9999 13.7143C17.8009 13.7143 19.5843 13.3596 21.2482 12.6703C22.9121 11.9811 24.4239 10.971 25.6974 9.69747C26.9709 8.42398 27.9811 6.91212 28.6703 5.24823C29.3595 3.58434 29.7142 1.80099 29.7142 0L2.28564 1.19894e-06Z" fill="#4A6FA5"/>
</svg>
